<?xml version="1.0" standalone="no"?><!DOCTYPE svg PUBLIC "-//W3C//DTD SVG 1.1//EN"
        "http://www.w3.org/Graphics/SVG/1.1/DTD/svg11.dtd">
<svg t="1514510165173" class="icon" style="" viewBox="0 0 1024 1024" version="1.1" xmlns="http://www.w3.org/2000/svg"
     p-id="4191" xmlns:xlink="http://www.w3.org/1999/xlink" width="18" height="18">
    <defs>
        <style type="text/css"></style>
    </defs>
    <path d="M512 962c-248.528 0-450-201.472-450-450s201.472-450 450-450c248.528 0 450 201.472 450 450-0.432 248.354-201.647 449.568-449.96 450zM512 87.888c-234.231 0-424.112 189.881-424.112 424.112s189.881 424.112 424.112 424.112c234.231 0 424.112-189.881 424.112-424.112-0.432-234.056-190.056-423.68-424.072-424.112z"
          fill="#bfbfbf" p-id="4192"></path>
    <path d="M333.066 496.010h-42.639c-8.831 0-15.99 7.159-15.99 15.99s7.159 15.99 15.99 15.99h42.639c8.831 0 15.99-7.159 15.99-15.99s-7.159-15.99-15.99-15.99zM387.888 387.127c2.963-2.904 4.8-6.949 4.8-11.422s-1.837-8.516-4.797-11.419l-28.936-30.459c-2.951-3.823-7.537-6.262-12.691-6.262-8.831 0-15.99 7.159-15.99 15.99 0 4.963 2.261 9.399 5.811 12.332l28.961 30.479c2.904 2.962 6.949 4.8 11.422 4.8s8.516-1.837 11.419-4.797zM526.467 719.106h-28.173c0 0 0 0 0 0-8.831 0-15.99 7.159-15.99 15.99 0 0 0 0 0 0-0.013 0.233-0.021 0.506-0.021 0.781 0 8.41 6.817 15.229 15.229 15.229 0.275 0 0.548-0.007 0.819-0.022l28.134 0.002c0.228 0.012 0.494 0.020 0.761 0.020 8.41 0 15.229-6.817 15.229-15.229 0-0.007 0-0.013 0-0.021 0 0.001 0 0.001 0 0.001 0-8.831-7.159-15.99-15.99-15.99zM733.574 496.771h-42.639c-8.831 0-15.99 7.159-15.99 15.99s7.159 15.99 15.99 15.99h42.639c8.831 0 15.99-7.159 15.99-15.99s-7.159-15.99-15.99-15.99zM512 359.715c-81.103 3.766-145.432 70.435-145.432 152.13 0 0.054 0 0.108 0 0.162 0.138 58.114 34.349 108.212 83.711 131.38l0.807 39.931c0.406 8.085 7.061 14.487 15.21 14.487 0.274 0 0.547-0.007 0.818-0.022l96.663 0.002c5.613-1.899 9.633-6.998 9.906-13.073l-0.007-38.703c50.306-23.608 84.518-73.838 84.518-132.060 0-0.15 0-0.301-0.001-0.45 0-0.022 0-0.077 0-0.131 0-81.695-64.328-148.364-145.094-152.118zM541.695 615.553v37.31c0.049 0.57 0.077 1.234 0.077 1.904s-0.028 1.333-0.082 1.989l0.007 9.051h-58.629v-1.523c-0.053-0.683-0.083-1.48-0.083-2.285s0.031-1.6 0.090-2.389l-0.007-37.205c-46.506-13.394-79.95-55.565-79.95-105.547 0-0.102 0-0.204 0-0.307 0-60.539 49.089-109.628 109.644-109.628 60.555 0 109.644 49.089 109.644 109.644 0 0 0 0 0 0 0 0.023 0 0.052 0 0.079 0 50.26-33.817 92.622-79.939 105.574zM693.979 330.021c-2.904-2.962-6.949-4.8-11.422-4.8s-8.516 1.837-11.419 4.797l-29.698 29.698c-2.923 2.923-4.732 6.961-4.732 11.422 0 8.921 7.232 16.152 16.152 16.152 4.461 0 8.498-1.807 11.422-4.732l30.457-29.695c2.963-2.904 4.8-6.949 4.8-11.422s-1.837-8.516-4.797-11.419zM515.807 344.487c0 0 0 0 0 0 8.831 0 15.99-7.159 15.99-15.99 0 0 0 0 0 0v-42.639c0-8.831-7.159-15.99-15.99-15.99s-15.99 7.159-15.99 15.99v42.639c0 8.831 7.159 15.99 15.99 15.99z"
          fill="#bfbfbf" p-id="4193"></path>
</svg>