<?xml version="1.0" standalone="no"?><!DOCTYPE svg PUBLIC "-//W3C//DTD SVG 1.1//EN"
        "http://www.w3.org/Graphics/SVG/1.1/DTD/svg11.dtd">
<svg t="1514425315931" class="icon" style="" viewBox="0 0 1024 1024" version="1.1" xmlns="http://www.w3.org/2000/svg"
     p-id="3970" xmlns:xlink="http://www.w3.org/1999/xlink" width="18" height="18">
    <defs>
        <style type="text/css"></style>
    </defs>
    <path d="M661.21216 662.03648c0.18944 0.14336 0.38912 0.28672 0.57856 0.4352l0-0.22016c4.27008 1.59744 8.90368 2.47808 13.76256 2.47808 20.89984 0 37.8368-16.18944 37.8368-36.16768l-0.34304-3.34336c0-8.06912-2.75968-15.52384-7.43936-21.53984l0.39936-0.46592c-0.68096-0.50176-1.36192-0.9984-2.048-1.50016-3.81952-4.25984-8.6528-7.66976-14.15168-9.87136-20.7104-13.75744-42.91072-25.6-66.33984-35.23584 69.77536-45.69088 115.56352-122.40384 115.56352-209.34144 0-140.05248-118.8096-253.59872-265.35936-253.59872-146.56 0-265.3696 113.54112-265.3696 253.59872 0 86.97344 45.824 163.70688 115.64032 209.39264-119.40864 49.15712-207.08352 155.28448-225.57184 282.5728-1.37216 3.73248-2.11968 7.75168-2.11968 11.93472l0.28672 2.81088-0.01024 0.10752 0.0256 0 0.04608 0.44544c0 19.95776 16.94208 36.15744 37.8368 36.15744s37.84192-16.18432 37.84192-36.15744l-0.04608-0.44544 0.68096 0c17.62816-138.0864 136.96-246.14912 284.2368-253.72672 5.46816 0.32256 10.97216 0.50176 16.52224 0.50176 5.56032 0 11.07456-0.1792 16.54272-0.50688 57.82016 2.9696 111.32416 21.43744 156.06784 51.11808C650.22976 656.09216 655.35488 659.7376 661.21216 662.03648M473.59488 528.47616c-104.6784 0-189.5424-81.10592-189.5424-181.14048 0-100.03968 84.864-181.13536 189.5424-181.13536 104.68864 0 189.53728 81.09568 189.53728 181.13536C663.13216 447.37024 578.27328 528.47616 473.59488 528.47616"
          p-id="3971" fill="#707070"></path>
    <path d="M883.063 694.583c1.9 1.14 3.79 2.27 7.575 4.545 1.89 1.135 4.545 5.3 6.435 6.43 2.65 4.17 4.535 5.3 5.29 8.325 1.52 6.055 0.385 7.95 1.14 10.97 0.76 3.035-0.375 4.925-1.51 6.815-1.14 1.895-2.27 3.785-5.3 4.535-1.135 1.9-2.28 3.785-5.295 4.545-1.135 1.895-3.405 5.68-4.55 7.575-1.13 1.89-3.4 5.675-2.64 8.695-1.135 1.895-0.38 4.925 0.375 7.95 3.41 7.195 6.06 11.355 11.735 14.76 5.68 3.41 9.455 5.675 16.265 7.19 4.93 0.37 6.815 1.505 9.465 5.675 0.755 3.02 0.755 3.02 1.52 6.05 0.755 3.035-0.38 4.92-0.765 9.845 0.77 3.025-1.505 6.815-2.64 8.7-0.38 4.925-1.515 6.81-3.79 10.6-1.13 1.89-2.265 3.78-4.15 2.645-3.045 0.76-3.045 0.76-4.925-0.37l0 0c-6.815-1.52-12.87-0.005-18.925 1.505-6.055 1.52-11.35 6.06-14.75 11.74-3.405 5.675-4.925 12.48-3.41 18.54 1.51 6.05 3.03 12.105 7.565 17.4 1.895 1.13 2.655 4.17 1.52 6.06 0.755 3.02-0.38 4.92-1.515 6.81-1.13 1.885-3.405 5.675-6.425 6.43-2.28 3.79-5.31 4.535-9.47 7.195-4.16 2.65-5.29 4.545-8.32 5.29-3.035 0.77-6.055 1.52-9.09 2.275-1.88-1.135-3.025 0.765-4.91-0.375-1.9-1.13-3.785-2.27-4.54-5.3-2.655-4.16-6.445-6.43-12.12-9.84-5.675-3.405-10.585-3.78-16.64-2.265-1.895-1.135-6.065 1.515-7.195 3.405-2.275 3.785-6.425 6.43-7.57 8.33-2.265 3.775-4.535 7.565-4.92 12.485-1.135 1.89-2.265 3.78-4.54 7.565 0 0-3.02 0.755-6.05 1.52-3.03 0.755-6.81-1.515-9.84-0.765-4.92-0.365-6.815-1.505-11.725-1.885-3.785-2.27-5.68-3.4-7.575-4.545-3.78-2.265-4.545-5.29-4.16-10.215 2.27-3.785 1.89-11.73 0.38-17.785-3.41-7.185-6.065-11.35-11.74-14.75-5.68-3.405-12.485-4.925-18.54-3.41-6.05 1.51-13.24 4.92-17.405 7.575-1.13 1.885-3.03 0.745-6.06 1.51-3.02 0.755-4.915-0.38-6.81-1.515-1.88-1.13-3.785-2.275-6.43-6.425-1.895-1.14-4.535-5.31-6.435-6.445-0.755-3.025-2.645-4.16-5.3-8.315 1.135-1.9-0.745-3.03-1.515-6.065 1.135-1.885-0.75-3.02 0.385-4.915 1.135-1.89 1.135-1.89 4.16-2.65 5.3-4.535 10.59-9.075 10.975-14 3.405-5.675 1.89-11.735 0.37-17.785-0.75-3.035-1.505-6.055-5.295-8.33-3.785-2.27-4.54-5.29-6.43-6.42-1.895-1.145-5.675-3.41-7.575-4.55-1.895-1.13-3.775-2.265-5.675-3.4-1.89-1.135-1.89-1.135-3.78-2.265-1.895-1.14-1.895-1.14-3.79-2.27 1.145-1.905 0.39-4.925-0.375-7.955-0.755-3.03-0.375-7.945 0.765-9.84 0.365-4.92 1.505-6.815 1.88-11.725 1.14-1.905 3.405-5.68 3.405-5.68 1.14-1.895 2.275-3.785 5.295-4.545 3.04-0.76 3.04-0.76 4.925 0.375 6.815 1.52 12.87 0.005 17.025-2.64 6.06-1.52 11.355-6.06 14.76-11.74 3.405-5.675 4.92-12.48 3.405-18.54 0.38-4.915-1.14-10.97-6.815-14.375-1.885-1.14-0.75-3.025-1.51-6.06-0.755-3.025 0.375-4.915 0.375-4.915 2.27-3.79 3.405-5.67 6.435-6.44 1.13-1.89 5.305-4.54 6.44-6.43 3.015-0.75 5.295-4.54 8.31-5.295 3.04-0.76 6.065-1.515 9.085-2.27 1.9 1.135 3.035-0.76 3.785 2.27 1.895 1.13 1.895 1.13 2.655 4.16 5.675 3.405 8.32 7.565 15.13 9.08 5.68 3.405 11.735 1.89 17.79 0.38 6.05-1.52 12.11-3.035 15.515-8.71 3.405-5.675 6.81-11.355 7.19-16.265 1.135-1.895 0.37-4.925 1.505-6.815 1.135-1.895 2.275-3.79 5.305-4.54 3.03-0.76 7.945-0.38 12.86 0 6.815 1.505 11.735 1.89 17.405 5.29 1.895 1.135 5.68 3.41 4.55 5.295 0.75 3.035 0.75 3.035 1.52 6.06-1.52 6.815-0.005 12.87 1.505 18.92 1.52 6.055 6.06 11.35 11.74 14.755 5.675 3.4 10.595 3.79 17.4 5.305 6.055-1.525 12.11-3.035 16.27-5.685 1.135-1.895 3.035-0.76 4.165-2.64C878.153 694.208 880.043 695.338 883.063 694.583L883.063 694.583zM837.663 821.733c4.535-7.565 7.195-16.27 8.71-23.09-0.385-7.94-0.765-15.89-1.14-23.835-2.27-9.08-5.68-16.265-10.215-21.57-6.44-6.43-10.98-11.73-18.555-16.265-7.56-4.535-14.375-6.055-23.08-8.705-9.835-0.75-17.785-0.37-23.84 1.135-9.08 2.27-16.265 5.685-21.57 10.22-6.435 6.44-11.73 10.98-16.265 18.55-4.535 7.56-6.055 14.375-8.705 23.085-1.51 6.81-1.14 14.755 1.135 23.835 1.52 6.045 4.925 13.245 10.22 21.57 4.545 5.295 10.98 11.73 18.55 16.265 7.56 4.535 14.375 6.055 23.08 8.71 7.95-0.385 15.895-0.765 23.84-1.14 9.08-2.27 15.13-3.79 21.57-10.215C826.693 835.733 833.128 829.303 837.663 821.733L837.663 821.733z"
          p-id="3972" fill="#707070"></path>
</svg>