<?xml version="1.0" standalone="no"?><!DOCTYPE svg PUBLIC "-//W3C//DTD SVG 1.1//EN" "http://www.w3.org/Graphics/SVG/1.1/DTD/svg11.dtd"><svg t="1514358356724" class="icon" style="" viewBox="0 0 2102 1024" version="1.1" xmlns="http://www.w3.org/2000/svg" p-id="6042" xmlns:xlink="http://www.w3.org/1999/xlink" width="98.53125" height="48"><defs><style type="text/css"></style></defs><path d="M28.7 512c0 268.504 217.681 486.184 486.184 486.184 11.102 0 22.097-0.404 33.011-1.132h1017.505c10.914 0.728 21.908 1.132 33.011 1.132 268.504 0 486.184-217.681 486.184-486.184 0-268.504-217.681-486.184-486.184-486.184-11.102 0-22.124 0.404-33.037 1.132h-1017.452c-10.914-0.728-21.935-1.132-33.037-1.132-268.504 0-486.184 217.681-486.184 486.184v0zM1143.215 512c0-229.887 186.368-416.229 416.229-416.229s416.229 186.368 416.229 416.229-186.368 416.229-416.229 416.229c-229.887 0-416.229-186.341-416.229-416.229v0zM1143.215 512z" fill="#1afa29" p-id="6043"></path></svg>