<?xml version="1.0" standalone="no"?><!DOCTYPE svg PUBLIC "-//W3C//DTD SVG 1.1//EN"
        "http://www.w3.org/Graphics/SVG/1.1/DTD/svg11.dtd">
<svg t="1514509802150" class="icon" style="" viewBox="0 0 1024 1024" version="1.1" xmlns="http://www.w3.org/2000/svg"
     p-id="2617" xmlns:xlink="http://www.w3.org/1999/xlink" width="18" height="18">
    <defs>
        <style type="text/css"></style>
    </defs>
    <path d="M465.454545 435.2c-23.272727 27.927273-46.545455 55.854545-72.145454 81.454545-4.654545-2.327273-6.981818-4.654545-11.636364-6.981818v-25.6c23.272727-30.254545 46.545455-60.509091 67.490909-93.090909l2.327273-2.327273v-55.854545H372.363636l34.909091-18.618182-4.654545-9.309091c-16.290909-30.254545-30.254545-55.854545-46.545455-79.127272l-4.654545-6.981819-58.181818 27.927273 9.309091 9.309091c11.636364 20.945455 25.6 46.545455 39.563636 76.8H218.763636V395.636364h148.945455c-39.563636 55.854545-93.090909 107.054545-153.6 153.6l-4.654546 2.327272 2.327273 6.981819c4.654545 16.290909 11.636364 32.581818 16.290909 48.872727l4.654546 13.963636 11.636363-9.309091c25.6-18.618182 48.872727-39.563636 72.145455-60.509091v253.672728h65.163636V581.818182c23.272727 18.618182 51.2 39.563636 79.127273 65.163636l6.981818 6.981818 39.563637-53.527272-6.981819-4.654546c-20.945455-13.963636-41.890909-30.254545-62.836363-44.218182 23.272727-20.945455 48.872727-44.218182 76.8-67.490909l6.981818-6.981818-51.2-46.545454-4.654546 4.654545zM807.563636 546.909091c-46.545455-48.872727-100.072727-100.072727-160.581818-153.6l-6.981818-4.654546-20.945455 16.29091V221.090909h-67.490909v584.145455h67.490909V458.472727c48.872727 46.545455 93.090909 93.090909 130.327273 139.636364l6.981818 6.981818 55.854546-51.2-4.654546-6.981818z"
          p-id="2618"></path>
    <path d="M512 0C228.072727 0 0 228.072727 0 512s228.072727 512 512 512 512-228.072727 512-512S795.927273 0 512 0z m0 954.181818C267.636364 954.181818 69.818182 756.363636 69.818182 512S267.636364 69.818182 512 69.818182s442.181818 197.818182 442.181818 442.181818-197.818182 442.181818-442.181818 442.181818z"
          p-id="2619"></path>
</svg>