<?xml version="1.0" standalone="no"?><!DOCTYPE svg PUBLIC "-//W3C//DTD SVG 1.1//EN"
        "http://www.w3.org/Graphics/SVG/1.1/DTD/svg11.dtd">
<svg t="1514510183769" class="icon" style="" viewBox="0 0 1024 1024" version="1.1" xmlns="http://www.w3.org/2000/svg"
     p-id="4932" xmlns:xlink="http://www.w3.org/1999/xlink" width="18" height="18">
    <defs>
        <style type="text/css"></style>
    </defs>
    <path d="M512.162194 1023.796362c-68.955488 0-135.854131-13.506619-198.836581-40.146349-60.82839-25.728988-115.455545-62.558801-162.363901-109.467157-46.908356-46.909379-83.73817-101.536534-109.465111-162.363901C14.857894 648.838551 1.351276 581.940932 1.351276 512.98749c0-68.956511 13.506619-135.855154 40.145325-198.836581 25.727964-60.82839 62.556755-115.455545 109.465111-162.363901 46.908356-46.908356 101.535511-83.737146 162.363901-109.465111 62.981427-26.637684 129.880069-40.144302 198.836581-40.144302 68.954465 0 135.851061 13.506619 198.833511 40.144302 60.829414 25.727964 115.457592 62.556755 162.367994 109.465111 46.910403 46.908356 83.741239 101.535511 109.47125 162.362878 26.640754 62.98245 40.148395 129.881093 40.148395 198.837604 0 68.953442-13.507642 135.850038-40.148395 198.832488-25.728988 60.827367-62.560848 115.454522-109.47125 162.363901-46.910403 46.908356-101.538581 83.73817-162.367994 109.467157C648.012232 1010.289744 581.114612 1023.796362 512.162194 1023.796362zM512.162194 22.64372C241.785254 22.64372 21.8174 242.61055 21.8174 512.98749c0 270.37694 219.967854 490.343771 490.344794 490.343771 270.38308 0 490.355027-219.96683 490.355027-490.343771C1002.516198 242.61055 782.544251 22.64372 512.162194 22.64372z"
          p-id="4933"></path>
    <path d="M795.332756 358.372024l-566.338023 0c-30.14756 0-54.807241 24.665277-54.807241 54.801644l0 199.614262c0 30.158553 24.659681 54.806641 54.807241 54.806641l566.338023 0c30.158553 0 54.806641-24.648288 54.806641-54.806641L850.139397 413.173868C850.139397 383.037301 810.333586 358.372024 795.332756 358.372024L795.332756 358.372024zM242.70184 386.874699l537.495178 0c24.604318 0 44.736469 20.125355 44.736469 44.724477l0 125.981185L197.977163 557.580361l0-125.976188C197.977163 407.000054 218.098121 386.874699 242.70184 386.874699L242.70184 386.874699zM780.197018 638.975175 242.70184 638.975175c-24.603719 0-44.724477-20.131351-44.724477-44.735669l0-9.669444 626.956324 0 0 9.669444C824.933487 618.854816 804.801337 638.975175 780.197018 638.975175L780.197018 638.975175zM785.026744 621.821805l-59.178677 0c-0.301795 0-0.557622-0.245833-0.557622-0.557622l0-18.983129c0-0.311789 0.255827-0.557622 0.557622-0.557622l59.178677 0c0.312788 0 0.557622 0.256826 0.557622 0.557622l0 18.983129C785.584366 621.575971 785.339532 621.821805 785.026744 621.821805L785.026744 621.821805z"
          p-id="4934"></path>
</svg>